HIERARCHY
ROOT Hips
{
	OFFSET 4.795533 105.005997 -1.411832
	CHANNELS 6 Xposition Yposition Zposition Xrotation Yrotation Zrotation
	JOINT Chest
	{
		OFFSET -0.434321 13.600609 0.994515
		CHANNELS 3 Xrotation Yrotation Zrotation
		JOINT Chest2
		{
			OFFSET -3.788135 20.538551 4.783776
			CHANNELS 3 Xrotation Yrotation Zrotation
			JOINT Chest3
			{
				OFFSET -2.441397 14.717316 0.509980
				CHANNELS 3 Xrotation Yrotation Zrotation
				JOINT Neck
				{
					OFFSET -1.916309 16.971603 2.628437
					CHANNELS 3 Xrotation Yrotation Zrotation
					JOINT Head
					{
						OFFSET -3.532334 9.323608 3.228100
						CHANNELS 3 Xrotation Yrotation Zrotation
						End Site
						{
							OFFSET -3.517739 9.351669 3.162191
						}
					}
				}
				JOINT LeftCollar
				{
					OFFSET 2.909407 13.110748 4.631203
					CHANNELS 3 Xrotation Yrotation Zrotation
					JOINT LeftUpArm
					{
						OFFSET 14.665126 4.786331 -8.397892
						CHANNELS 3 Xrotation Yrotation Zrotation
						JOINT LeftLowArm
						{
							OFFSET 33.406845 4.116272 -2.601457
							CHANNELS 3 Xrotation Yrotation Zrotation
							JOINT LeftHand
							{
								OFFSET 28.966587 0.643463 7.840278
								CHANNELS 3 Xrotation Yrotation Zrotation
								End Site
								{
									OFFSET 6.330818 0.140640 1.713541
								}
							}
						}
					}
				}
				JOINT RightCollar
				{
					OFFSET -5.433147 12.097305 5.093598
					CHANNELS 3 Xrotation Yrotation Zrotation
					JOINT RightUpArm
					{
						OFFSET -16.553045 1.233154 -5.742139
						CHANNELS 3 Xrotation Yrotation Zrotation
						JOINT RightLowArm
						{
							OFFSET -31.966669 4.312637 9.963276
							CHANNELS 3 Xrotation Yrotation Zrotation
							JOINT RightHand
							{
								OFFSET -27.366653 0.977966 12.290800
								CHANNELS 3 Xrotation Yrotation Zrotation
								End Site
								{
									OFFSET -5.981255 0.213715 2.686281
								}
							}
						}
					}
				}
			}
		}
	}
	JOINT LeftUpLeg
	{
		OFFSET 10.015744 0.314369 0.072033
		CHANNELS 3 Xrotation Yrotation Zrotation
		JOINT LeftLowLeg
		{
			OFFSET 0.515252 -47.354218 -1.141616
			CHANNELS 3 Xrotation Yrotation Zrotation
			JOINT LeftFoot
			{
				OFFSET -4.985134 -42.539532 -12.888205
				CHANNELS 3 Xrotation Yrotation Zrotation
				JOINT LeftToe
				{
					OFFSET 1.196435 -16.882713 16.525812
					CHANNELS 3 Xrotation Yrotation Zrotation
					End Site
					{
						OFFSET 4.356194 -2.700471 23.093071
					}
				}
			}
		}
	}
	JOINT RightUpLeg
	{
		OFFSET -10.015741 -0.314568 -0.072048
		CHANNELS 3 Xrotation Yrotation Zrotation
		JOINT RightLowLeg
		{
			OFFSET -2.952129 -42.159309 21.398365
			CHANNELS 3 Xrotation Yrotation Zrotation
			JOINT RightFoot
			{
				OFFSET 29.591030 -27.629112 -19.015333
				CHANNELS 3 Xrotation Yrotation Zrotation
				JOINT RightToe
				{
					OFFSET 3.859987 -23.118984 3.189081
					CHANNELS 3 Xrotation Yrotation Zrotation
					End Site
					{
						OFFSET 0.312895 -16.286329 17.152657
					}
				}
			}
		}
	}
}
MOTION
Frames: 8
Frame Time: 0.033333
-1.321584 105.958885 -1.111724 1.297578 0.801484 -2.249301 -6.180427 0.556028 -5.608104 -0.037391 0.577190 0.522477 1.580710 -0.728921 -0.067344 -8.961116 13.785764 -6.196466 -0.000002 0.000000 0.000000 3.702598 2.908517 -32.447452 0.405855 -5.899421 -48.875218 8.931869 -3.483223 0.068441 -0.000004 -0.000002 -0.000001 8.444670 -5.735184 34.573673 20.606758 4.212266 56.865802 12.140227 17.372497 -3.261184 -0.000002 -0.000003 0.000000 2.115160 -0.145809 7.020845 -4.693861 1.977118 3.062357 -1.066536 -5.321306 -0.097719 -0.000001 -0.000000 0.000001 27.417759 1.032788 3.912662 -36.401005 -5.930684 -50.658704 -17.469722 -15.250665 32.852769 0.000003 -0.000001 0.000001 
-1.320346 105.956161 -1.109236 1.336318 0.774204 -2.345780 -6.558719 0.549822 -5.619154 -0.457791 0.524060 0.522728 2.131666 -0.745987 0.019876 -8.380748 13.868730 -6.237154 -0.000000 -0.000001 0.000001 3.833756 2.555006 -32.517926 0.329310 -6.113434 -48.897075 8.758287 -2.992169 0.223323 0.000000 -0.000001 0.000001 8.474491 -5.641899 34.904630 20.562436 4.170368 56.454276 11.858117 17.271009 -3.103452 0.000001 -0.000002 -0.000000 2.048306 -0.186650 7.135364 -4.829952 1.899940 2.994614 -1.349366 -5.366212 0.181756 -0.000001 -0.000000 -0.000002 27.489812 1.100689 3.974618 -36.770344 -5.906389 -50.658963 -17.561038 -15.440037 33.061647 -0.000001 -0.000002 0.000002 
-1.320121 105.950493 -1.107188 1.465201 0.768216 -2.404820 -6.699692 0.557569 -5.667038 -0.068518 0.596150 0.503956 1.967941 -0.920489 0.099705 -8.750162 13.921234 -6.247153 0.000001 0.000000 0.000000 3.877632 2.489189 -32.468616 0.289963 -6.339348 -48.989040 8.741953 -3.084291 0.464140 -0.000002 -0.000001 -0.000000 8.504893 -5.193996 34.954948 20.582232 4.157238 56.382050 11.846377 17.385480 -3.321731 -0.000004 -0.000005 0.000001 2.168264 -0.185581 7.219200 -4.995826 1.841006 2.981880 -1.257348 -5.504149 -0.070474 -0.000000 0.000001 -0.000001 27.517121 1.134873 4.043302 -36.847610 -5.873402 -50.635905 -17.504778 -15.460087 32.964180 0.000003 0.000000 0.000002 
-1.318876 105.945053 -1.102667 0.978112 1.077270 -2.561961 -6.001284 0.520415 -5.498378 -0.030639 0.516004 0.592764 1.701713 -0.811746 -0.020370 -8.551823 13.621153 -6.083958 0.000001 0.000000 0.000000 3.882167 2.258845 -32.522724 0.210851 -6.476844 -48.949855 8.685782 -3.106762 0.388053 -0.000000 0.000000 0.000001 8.478991 -5.549814 35.103245 20.514767 4.050433 56.338047 11.811171 17.567416 -3.477021 0.000002 -0.000001 -0.000001 2.653186 -0.140255 7.429111 -4.678689 1.849134 2.952719 -1.348978 -5.739422 -0.206904 -0.000000 -0.000000 -0.000001 27.730377 1.208824 4.219535 -36.417097 -5.850699 -50.589097 -17.298356 -15.779028 32.777538 -0.000001 0.000000 0.000000 
-1.308921 105.941566 -1.105251 1.053565 1.202397 -2.616393 -6.338147 0.488166 -5.412684 0.298213 0.465441 0.698659 1.526165 -1.113516 -0.185327 -8.290073 13.619662 -6.075470 -0.000000 0.000000 0.000002 3.862473 2.557715 -32.572868 0.331654 -6.425214 -48.737686 8.949558 -3.602912 0.151820 -0.000004 0.000001 0.000000 8.499681 -5.164452 35.054839 20.455501 4.239547 56.267471 11.889299 17.392698 -3.710783 0.000000 -0.000002 0.000000 2.613452 -0.109415 7.456430 -4.590700 1.782513 2.923602 -1.400046 -5.842284 -0.287401 -0.000001 -0.000001 -0.000000 27.584349 1.161532 4.176834 -36.393396 -5.868895 -50.509857 -17.333659 -15.705199 32.828239 0.000003 0.000001 0.000000 
-1.292764 105.939812 -1.108220 1.511242 1.020642 -2.664417 -6.795115 0.470645 -5.422198 0.148571 0.475074 0.678925 1.717498 -1.047749 -0.083340 -8.317699 13.576113 -6.004003 -0.000000 0.000000 0.000001 3.984775 2.520555 -32.702324 0.421636 -6.556813 -48.671556 9.144036 -3.936547 0.237641 0.000002 0.000003 0.000002 8.615710 -5.120246 35.205124 20.432164 4.459982 55.946821 12.021404 17.302838 -3.945152 0.000001 -0.000003 -0.000001 2.218919 -0.124050 7.412404 -4.700883 1.766693 2.996516 -1.164315 -5.783554 -0.455050 -0.000000 -0.000001 -0.000000 27.584265 1.144707 4.189519 -36.924962 -5.932745 -50.615855 -17.510450 -15.182025 32.964030 -0.000003 0.000002 0.000002 
-1.276507 105.941841 -1.107841 1.015260 0.783788 -2.719371 -6.294697 0.509103 -5.477198 0.730512 0.552012 0.678178 1.181076 -0.833600 0.031583 -8.485242 13.338805 -5.860053 -0.000000 0.000001 0.000001 4.000140 2.249814 -32.474473 0.325286 -6.858897 -48.649464 9.111451 -3.954040 -0.357807 0.000002 0.000001 -0.000000 8.576156 -5.060745 35.242922 20.363290 4.501177 55.817768 11.918559 17.296136 -4.008756 -0.000001 -0.000003 -0.000000 2.824361 -0.054736 7.481595 -4.877676 1.774877 2.884366 -1.140755 -5.505176 -0.267683 -0.000000 -0.000000 -0.000000 27.733785 1.196723 4.274099 -36.605651 -5.756609 -50.785906 -17.553514 -14.842491 33.054588 -0.000002 0.000002 0.000003 
-1.247890 105.939972 -1.109125 0.830182 0.787842 -2.772960 -6.107233 0.499776 -5.443102 0.968929 0.599382 0.700307 0.913426 -1.037392 0.043364 -8.370942 13.315992 -5.804615 -0.000000 -0.000002 0.000001 4.100832 2.338233 -32.361809 0.385330 -7.210573 -48.627651 9.329158 -4.751418 -0.620562 -0.000006 0.000000 0.000001 8.668282 -4.694675 35.191962 20.462574 4.634723 55.672664 11.861873 17.006041 -4.372767 -0.000002 0.000000 0.000000 2.902784 -0.094606 7.481985 -4.525579 1.716164 2.796712 -1.070847 -5.137977 0.008262 0.000001 0.000001 -0.000001 27.440208 1.252060 4.273397 -35.835185 -5.665743 -50.807615 -17.489002 -15.193821 33.004270 0.000005 0.000000 0.000001 
